#!OML:ASF H:\Terrain\Patient Classification 1\PLAYGROUND\JustinFriday\JustinFriday.ASF
:FULLY-SPECIFIED
:DEGREES
2447
root -11.6766 17.1744 12.4668 342.243 76.4662 -17.0017
lowerback 13.8042 2.33508 3.20781
upperback 3.16206 3.93759 4.23806
thorax -4.48205 1.9973 1.95206
lowerneck -1.32093 13.419 0.16469
upperneck -0.419673 18.0579 -7.8749
head 0.877144 9.03852 -2.17114
rclavicle -2.90226e-014 -3.18055e-014
rhumerus -25.4695 -12.4472 -68.401
rradius 28.9066
rwrist -14.1234
rhand -19.3849 -26.6886
rfingers 7.12502
rthumb 6.93364 303.445
lclavicle -2.90226e-014 -3.18055e-014
lhumerus -32.3074 -4.863 88.0806
lradius 71.4037
lwrist -3.17714
lhand -16.8018 -13.6554
lfingers 7.12502
lthumb 9.42655 16.1138
rfemur -25.1882 1.84406 15.2774
rtibia 32.1937
rfoot -4.09001 11.3004
rtoes 15.1061
lfemur -0.94272 -22.7749 -10.4584
ltibia 34.3134
lfoot -6.42871 -36.7376
ltoes 29.9301
2448
root -11.6393 17.1731 12.6137 339.892 77.5773 -18.4635
lowerback 14.3815 2.41199 2.62431
upperback 3.5656 3.98719 4.27756
thorax -4.41398 2.0372 2.29631
lowerneck -1.32576 13.4614 0.318062
upperneck -0.718129 18.1011 -8.11486
head 0.82447 9.06921 -2.27581
rclavicle -4.77083e-014 -5.08889e-014
rhumerus -25.1617 -12.5917 -68.4919
rradius 28.4029
rwrist -13.9428
rhand -19.834 -27.0081
rfingers 7.12502
rthumb 6.50003 303.112
lclavicle -4.77083e-014 -5.08889e-014
lhumerus -32.0567 -5.37964 88.1002
lradius 71.0825
lwrist -3.04399
lhand -17.3671 -13.5637
lfingers 7.12502
lthumb 8.88107 16.2294
rfemur -23.9562 2.44577 15.6213
rtibia 32.8445
rfoot -5.77828 9.5922
rtoes 8.57754
lfemur 0.0305132 -22.184 -10.3538
ltibia 34.7474
lfoot -7.61286 -35.9162
ltoes 28.4957
2449
root -11.6014 17.1721 12.6881 340.88 79.3943 -17.4248
lowerback 14.1522 2.16432 2.1809
upperback 3.66725 3.56541 4.03781
thorax -4.18188 1.83357 2.37935
lowerneck -0.894423 13.6381 0.00337444
upperneck -1.56804 18.2863 -8.40446
head 0.491724 9.20186 -2.38507
rclavicle -1.31198e-014 -2.14687e-014
rhumerus -24.8321 -11.7434 -68.6309
rradius 28.0097
rwrist -14.0569
rhand -20.2907 -27.3019
rfingers 7.12502
rthumb 6.05921 302.805
lclavicle -1.31198e-014 -2.14687e-014
lhumerus -31.8578 -5.28535 88.1424
lradius 70.5876
lwrist -3.02374
lhand -17.4833 -14.2295
lfingers 7.12502
lthumb 8.76902 15.5683
rfemur -23.8922 1.36662 14.9307
rtibia 33.5697
rfoot -6.66258 8.71598
rtoes 4.85496
lfemur -0.327438 -22.1325 -10.9753
ltibia 35.1112
lfoot -8.51171 -34.3689
ltoes 26.9098
2450
root -11.5695 17.1702 12.758 339.961 81.0001 -18.3626
lowerback 14.0452 2.02975 2.03669
upperback 3.61226 3.36049 3.96836
thorax -4.1794 1.73307 2.42615
lowerneck -0.338051 13.7541 -0.133422
upperneck -2.046 18.4059 -8.7044
head 0.272182 9.29346 -2.52111
rclavicle 2.56432e-014 6.12257e-014
rhumerus -24.9015 -11.2599 -68.4378
rradius 27.7118
rwrist -14.2213
rhand -20.4234 -27.3616
rfingers 7.12502
rthumb 5.93106 302.741
lclavicle 2.56432e-014 6.12257e-014
lhumerus -31.8748 -5.50273 88.486
lradius 69.9834
lwrist -2.52341
lhand -18.1043 -14.5294
lfingers 7.12502
lthumb 8.16971 15.2926
rfemur -23.9007 0.51343 14.6585
rtibia 34.3659
rfoot -7.45519 7.66536
rtoes 2.01609
lfemur -0.5543 -21.9929 -11.1898
ltibia 35.0955
lfoot -8.9058 -32.6811
ltoes 26.0572
2451
root -11.5367 17.1899 12.8653 335.145 82.5573 -23.0282
lowerback 14.0765 1.9845 1.62281
upperback 3.64737 3.27079 4.27486
thorax -4.19774 1.6984 2.99815
lowerneck -1.19042 13.4924 0.572223
upperneck -0.817457 18.1641 -8.83766
head 0.874374 9.11107 -2.5432
rclavicle -9.93923e-015 -1.19271e-014
rhumerus -24.8912 -10.7886 -67.9389
rradius 27.3335
rwrist -14.2596
rhand -19.2429 -27.0441
rfingers 7.12502
rthumb 7.07067 303.094
lclavicle -9.93923e-015 -1.19271e-014
lhumerus -31.8733 -6.20254 89.3503
lradius 69.4661
lwrist -0.827384
lhand -20.6781 -12.4693
lfingers 7.12502
lthumb 5.68518 17.4345
rfemur -23.3715 0.886458 14.8412
rtibia 34.9057
rfoot -7.76467 5.56345
rtoes 1.73426
lfemur -0.619648 -21.429 -10.7647
ltibia 35.1912
lfoot -9.64428 -31.4997
ltoes 24.8912
2452
root -11.5024 17.2254 12.98 334.097 84.3434 -24.0955
lowerback 13.8903 1.80289 1.129
upperback 3.71177 2.91763 3.78908
thorax -4.01084 1.52242 2.83317
lowerneck -1.94481 13.5744 1.08528
upperneck -0.267636 18.3067 -8.69185
head 1.21872 9.14345 -2.48456
rclavicle -1.19271e-014 -2.46493e-014
rhumerus -24.7217 -10.4331 -68.4767
rradius 26.8698
rwrist -14.0548
rhand -18.2992 -26.5136
rfingers 7.12502
rthumb 7.98156 303.657
lclavicle -1.19271e-014 -2.46493e-014
lhumerus -31.4952 -6.1803 88.4887
lradius 68.4113
lwrist -2.14475
lhand -20.7796 -12.5424
lfingers 7.12502
lthumb 5.58719 17.3639
rfemur -23.0743 1.67034 14.2155
rtibia 35.4312
rfoot -7.74221 3.55815
rtoes 5.80543
lfemur -0.883322 -20.6 -10.9354
ltibia 35.1657
lfoot -10.279 -30.2867
ltoes 23.1228
2453
root -11.4738 17.2429 13.0647 310.438 84.7765 -47.4699
lowerback 14.1374 1.9673 2.39023
upperback 3.77004 3.38092 4.36084
thorax -4.06873 1.75739 2.63631
lowerneck -2.04214 13.217 1.80211
upperneck -0.0562936 17.8561 -9.2447
head 1.4108 8.90901 -2.76383
rclavicle -4.33351e-014 -4.05521e-014
rhumerus -25.33 -10.833 -67.6059
rradius 26.688
rwrist -13.7854
rhand -19.9252 -26.9802
rfingers 7.12502
rthumb 6.41202 303.137
lclavicle -4.33351e-014 -4.05521e-014
lhumerus -31.1961 -7.58569 89.295
lradius 67.3728
lwrist -1.60706
lhand -21.6133 -12.8885
lfingers 7.12502
lthumb 4.78218 17.0376
rfemur -22.1886 2.13135 16.0644
rtibia 35.6146
rfoot -8.12217 1.51745
rtoes 7.29285
lfemur -0.791109 -19.6949 -8.80587
ltibia 35.2244
lfoot -10.5541 -29.3137
ltoes 21.6336
